<svg width="1200" height="800" viewBox="0 0 1200 800" xmlns="http://www.w3.org/2000/svg">
  <g fill="#1f1a16" opacity="0.14" transform="translate(40 120) rotate(-12 520 260)">
    <rect x="60" y="260" width="620" height="92" rx="46"/>
    <rect x="640" y="230" width="170" height="152" rx="20"/>
    <path d="M800 230 C880 190, 1010 200, 1080 255 C1120 287, 1145 345, 1120 410 C1085 505, 960 525, 880 485 C820 455, 780 395, 780 330 C780 290, 785 260, 800 230 Z"/>
    <path d="M100 344 C160 382, 240 398, 320 392 C250 420, 170 420, 110 390 C90 378, 84 356, 100 344 Z" opacity="0.55"/>
  </g>
</svg>
