<svg width="1200" height="800" viewBox="0 0 1200 800" xmlns="http://www.w3.org/2000/svg">
  <g fill="#2a231d">
    <path d="M140 160 C110 120, 130 80, 190 70 C250 60, 320 90, 340 130 C360 170, 330 220, 270 230 C210 240, 170 210, 140 160 Z" opacity="0.18"/>
    <path d="M480 140 C460 90, 510 60, 580 70 C650 80, 700 120, 690 170 C680 220, 610 230, 560 210 C510 190, 500 180, 480 140 Z" opacity="0.12"/>
    <path d="M840 130 C820 90, 860 60, 930 70 C1000 80, 1060 130, 1050 180 C1040 230, 970 240, 920 220 C870 200, 860 180, 840 130 Z" opacity="0.16"/>
  </g>
  <g fill="#6e6258">
    <path d="M220 420 C190 380, 210 340, 270 330 C330 320, 390 350, 410 390 C430 430, 400 480, 340 490 C280 500, 240 470, 220 420 Z" opacity="0.18"/>
    <path d="M620 420 C590 380, 610 340, 670 330 C730 320, 790 350, 810 390 C830 430, 800 480, 740 490 C680 500, 640 470, 620 420 Z" opacity="0.14"/>
    <path d="M980 430 C950 390, 970 350, 1030 340 C1090 330, 1150 360, 1170 400 C1190 440, 1160 490, 1100 500 C1040 510, 1000 480, 980 430 Z" opacity="0.2"/>
  </g>
  <g fill="#a89c92">
    <path d="M80 620 C60 580, 90 540, 140 530 C190 520, 250 540, 270 580 C290 620, 260 660, 210 670 C160 680, 110 660, 80 620 Z" opacity="0.16"/>
    <path d="M460 640 C440 600, 470 560, 520 550 C570 540, 630 560, 650 600 C670 640, 640 680, 590 690 C540 700, 490 680, 460 640 Z" opacity="0.12"/>
    <path d="M840 630 C820 590, 850 550, 900 540 C950 530, 1010 550, 1030 590 C1050 630, 1020 670, 970 680 C920 690, 870 670, 840 630 Z" opacity="0.18"/>
  </g>
</svg>
